<mxfile host="app.diagrams.net" agent="Mozilla/5.0 (Macintosh; Intel Mac OS X 10_15_7) AppleWebKit/537.36 (KHTML, like Gecko) Chrome/137.0.0.0 Safari/537.36" version="27.1.5">
  <diagram name="Page-1" id="VnT4fsNyDUWwt8nGfLcJ">
    <mxGraphModel dx="876" dy="623" grid="1" gridSize="10" guides="1" tooltips="1" connect="1" arrows="1" fold="1" page="1" pageScale="1" pageWidth="827" pageHeight="1169" math="0" shadow="0">
      <root>
        <mxCell id="0" />
        <mxCell id="1" parent="0" />
        <mxCell id="VUW-40_pyiuPNdpMe8ek-2" value="Patient with Symptoms" style="whiteSpace=wrap;strokeWidth=2;fontSize=20;" vertex="1" parent="1">
          <mxGeometry x="9" y="47" width="141" height="60" as="geometry" />
        </mxCell>
        <mxCell id="VUW-40_pyiuPNdpMe8ek-3" value="Traditional Diagnosis" style="whiteSpace=wrap;strokeWidth=2;fontSize=20;" vertex="1" parent="1">
          <mxGeometry x="197" y="50" width="207" height="54" as="geometry" />
        </mxCell>
        <mxCell id="VUW-40_pyiuPNdpMe8ek-4" value="Blood Smear Image Acquisition" style="whiteSpace=wrap;strokeWidth=2;fontSize=20;" vertex="1" parent="1">
          <mxGeometry x="209.13" y="120" width="182.75" height="53" as="geometry" />
        </mxCell>
        <mxCell id="VUW-40_pyiuPNdpMe8ek-5" value="Preprocessing" style="whiteSpace=wrap;strokeWidth=2;fontSize=20;" vertex="1" parent="1">
          <mxGeometry x="225.75" y="190" width="148.5" height="30" as="geometry" />
        </mxCell>
        <mxCell id="VUW-40_pyiuPNdpMe8ek-6" value="Augmentation" style="whiteSpace=wrap;strokeWidth=2;fontSize=20;" vertex="1" parent="1">
          <mxGeometry x="230.5" y="235" width="140" height="33" as="geometry" />
        </mxCell>
        <mxCell id="VUW-40_pyiuPNdpMe8ek-7" value="Segmentation" style="whiteSpace=wrap;strokeWidth=2;fontSize=20;" vertex="1" parent="1">
          <mxGeometry x="233" y="300" width="134" height="34" as="geometry" />
        </mxCell>
        <mxCell id="VUW-40_pyiuPNdpMe8ek-30" style="edgeStyle=orthogonalEdgeStyle;rounded=0;orthogonalLoop=1;jettySize=auto;html=1;exitX=0;exitY=0.5;exitDx=0;exitDy=0;entryX=0.5;entryY=0;entryDx=0;entryDy=0;" edge="1" parent="1" source="VUW-40_pyiuPNdpMe8ek-8" target="VUW-40_pyiuPNdpMe8ek-9">
          <mxGeometry relative="1" as="geometry" />
        </mxCell>
        <mxCell id="VUW-40_pyiuPNdpMe8ek-31" style="edgeStyle=orthogonalEdgeStyle;rounded=0;orthogonalLoop=1;jettySize=auto;html=1;entryX=0.5;entryY=0;entryDx=0;entryDy=0;exitX=1;exitY=0.5;exitDx=0;exitDy=0;" edge="1" parent="1" source="VUW-40_pyiuPNdpMe8ek-8" target="VUW-40_pyiuPNdpMe8ek-10">
          <mxGeometry relative="1" as="geometry" />
        </mxCell>
        <mxCell id="VUW-40_pyiuPNdpMe8ek-8" value="Feature Extraction" style="whiteSpace=wrap;strokeWidth=2;fontSize=20;" vertex="1" parent="1">
          <mxGeometry x="203" y="365" width="194" height="35" as="geometry" />
        </mxCell>
        <mxCell id="VUW-40_pyiuPNdpMe8ek-33" style="edgeStyle=orthogonalEdgeStyle;rounded=0;orthogonalLoop=1;jettySize=auto;html=1;exitX=0.5;exitY=1;exitDx=0;exitDy=0;entryX=0;entryY=0.5;entryDx=0;entryDy=0;" edge="1" parent="1" source="VUW-40_pyiuPNdpMe8ek-9" target="VUW-40_pyiuPNdpMe8ek-11">
          <mxGeometry relative="1" as="geometry" />
        </mxCell>
        <mxCell id="VUW-40_pyiuPNdpMe8ek-9" value="DL Models - CNN or ResNet" style="whiteSpace=wrap;strokeWidth=2;fontSize=20;" vertex="1" parent="1">
          <mxGeometry x="84" y="432" width="146" height="54" as="geometry" />
        </mxCell>
        <mxCell id="VUW-40_pyiuPNdpMe8ek-32" style="edgeStyle=orthogonalEdgeStyle;rounded=0;orthogonalLoop=1;jettySize=auto;html=1;entryX=1;entryY=0.5;entryDx=0;entryDy=0;exitX=0.5;exitY=1;exitDx=0;exitDy=0;" edge="1" parent="1" source="VUW-40_pyiuPNdpMe8ek-10" target="VUW-40_pyiuPNdpMe8ek-11">
          <mxGeometry relative="1" as="geometry" />
        </mxCell>
        <mxCell id="VUW-40_pyiuPNdpMe8ek-10" value="ML Models - SVM or RF" style="whiteSpace=wrap;strokeWidth=2;fontSize=20;" vertex="1" parent="1">
          <mxGeometry x="375" y="432" width="135" height="54" as="geometry" />
        </mxCell>
        <mxCell id="VUW-40_pyiuPNdpMe8ek-11" value="Classification" style="whiteSpace=wrap;strokeWidth=2;fontSize=20;" vertex="1" parent="1">
          <mxGeometry x="230" y="518" width="141" height="28" as="geometry" />
        </mxCell>
        <mxCell id="VUW-40_pyiuPNdpMe8ek-12" value="Validation and Evaluation" style="whiteSpace=wrap;strokeWidth=2;fontSize=20;" vertex="1" parent="1">
          <mxGeometry x="179.5" y="575" width="242" height="36" as="geometry" />
        </mxCell>
        <mxCell id="VUW-40_pyiuPNdpMe8ek-13" value="Diagnosis Output" style="whiteSpace=wrap;strokeWidth=2;fontSize=20;" vertex="1" parent="1">
          <mxGeometry x="210.5" y="637" width="180" height="30" as="geometry" />
        </mxCell>
        <mxCell id="VUW-40_pyiuPNdpMe8ek-14" value="Clinical Decision Making" style="whiteSpace=wrap;strokeWidth=2;fontSize=20;" vertex="1" parent="1">
          <mxGeometry x="185" y="691" width="231" height="30" as="geometry" />
        </mxCell>
        <mxCell id="VUW-40_pyiuPNdpMe8ek-15" value="" style="curved=1;startArrow=none;endArrow=block;exitX=1;exitY=0.5;entryX=0;entryY=0.5;rounded=0;exitDx=0;exitDy=0;entryDx=0;entryDy=0;fontSize=20;" edge="1" parent="1" source="VUW-40_pyiuPNdpMe8ek-2" target="VUW-40_pyiuPNdpMe8ek-3">
          <mxGeometry relative="1" as="geometry">
            <Array as="points" />
          </mxGeometry>
        </mxCell>
        <mxCell id="VUW-40_pyiuPNdpMe8ek-16" value="" style="curved=1;startArrow=none;endArrow=block;exitX=0.5;exitY=1;entryX=0.5;entryY=0;rounded=0;fontSize=20;" edge="1" parent="1" source="VUW-40_pyiuPNdpMe8ek-3" target="VUW-40_pyiuPNdpMe8ek-4">
          <mxGeometry relative="1" as="geometry">
            <Array as="points" />
          </mxGeometry>
        </mxCell>
        <mxCell id="VUW-40_pyiuPNdpMe8ek-17" value="" style="curved=1;startArrow=none;endArrow=block;exitX=0.5;exitY=1;entryX=0.5;entryY=0;rounded=0;fontSize=20;" edge="1" parent="1" source="VUW-40_pyiuPNdpMe8ek-4" target="VUW-40_pyiuPNdpMe8ek-5">
          <mxGeometry relative="1" as="geometry">
            <Array as="points" />
          </mxGeometry>
        </mxCell>
        <mxCell id="VUW-40_pyiuPNdpMe8ek-18" value="" style="curved=1;startArrow=none;endArrow=block;exitX=0.5;exitY=1;entryX=0.5;entryY=0;rounded=0;fontSize=20;" edge="1" parent="1" source="VUW-40_pyiuPNdpMe8ek-5" target="VUW-40_pyiuPNdpMe8ek-6">
          <mxGeometry relative="1" as="geometry">
            <Array as="points" />
          </mxGeometry>
        </mxCell>
        <mxCell id="VUW-40_pyiuPNdpMe8ek-19" value="" style="curved=1;startArrow=none;endArrow=block;exitX=0.5;exitY=1;entryX=0.5;entryY=0;rounded=0;fontSize=20;" edge="1" parent="1" source="VUW-40_pyiuPNdpMe8ek-6" target="VUW-40_pyiuPNdpMe8ek-7">
          <mxGeometry relative="1" as="geometry">
            <Array as="points" />
          </mxGeometry>
        </mxCell>
        <mxCell id="VUW-40_pyiuPNdpMe8ek-20" value="" style="curved=1;startArrow=none;endArrow=block;exitX=0.5;exitY=1;entryX=0.5;entryY=0;rounded=0;fontSize=20;" edge="1" parent="1" source="VUW-40_pyiuPNdpMe8ek-7" target="VUW-40_pyiuPNdpMe8ek-8">
          <mxGeometry relative="1" as="geometry">
            <Array as="points" />
          </mxGeometry>
        </mxCell>
        <mxCell id="VUW-40_pyiuPNdpMe8ek-25" value="" style="curved=1;startArrow=none;endArrow=block;exitX=0.5;exitY=1;entryX=0.5;entryY=0;rounded=0;fontSize=20;" edge="1" parent="1" source="VUW-40_pyiuPNdpMe8ek-11" target="VUW-40_pyiuPNdpMe8ek-12">
          <mxGeometry relative="1" as="geometry">
            <Array as="points" />
          </mxGeometry>
        </mxCell>
        <mxCell id="VUW-40_pyiuPNdpMe8ek-26" value="" style="curved=1;startArrow=none;endArrow=block;exitX=0.5;exitY=1;entryX=0.5;entryY=0;rounded=0;fontSize=20;" edge="1" parent="1" source="VUW-40_pyiuPNdpMe8ek-12" target="VUW-40_pyiuPNdpMe8ek-13">
          <mxGeometry relative="1" as="geometry">
            <Array as="points" />
          </mxGeometry>
        </mxCell>
        <mxCell id="VUW-40_pyiuPNdpMe8ek-27" value="" style="curved=1;startArrow=none;endArrow=block;exitX=0.5;exitY=1;entryX=0.5;entryY=0;rounded=0;fontSize=20;" edge="1" parent="1" source="VUW-40_pyiuPNdpMe8ek-13" target="VUW-40_pyiuPNdpMe8ek-14">
          <mxGeometry relative="1" as="geometry">
            <Array as="points" />
          </mxGeometry>
        </mxCell>
      </root>
    </mxGraphModel>
  </diagram>
</mxfile>
